<svg aria-hidden="true" xmlns="http://www.w3.org/2000/svg" viewBox="0 0 24 24" fill="none" stroke="currentColor" stroke-width="1.5" stroke-linecap="round" stroke-linejoin="round"><g fill="none" stroke="currentColor" stroke-linecap="round" stroke-linejoin="round">
  <path d="M22 16.92v2a2 2 0 0 1-2.18 2 19.83 19.83 0 0 1-8.63-3.07 19.5 19.5 0 0 1-6-6 19.83 19.83 0 0 1-3.07-8.65A2 2 0 0 1 4.1 1h2a2 2 0 0 1 2 1.72c.12.91.33 1.79.62 2.64a2 2 0 0 1-.45 2.11L7.1 8.9a16 16 0 0 0 6 6l1.43-1.17a2 2 0 0 1 2.11-.45c.85.29 1.73.5 2.64.62A2 2 0 0 1 22 16.92Z"/>
</g></svg>
