<?xml version="1.0" encoding="UTF-8"?>
<svg xmlns="http://www.w3.org/2000/svg" style="display:none">

  <symbol id="anchor" viewBox="0 0 24 24">
    <g fill="none" stroke="currentColor" stroke-linecap="round" stroke-linejoin="round">
  <path d="M12 2v6"/>
  <circle cx="12" cy="9" r="1.5"/>
  <path d="M5 12a7 7 0 0 0 14 0"/>
  <path d="M8 12h-3v3"/>
  <path d="M16 12h3v3"/>
</g>
  </symbol>
  <symbol id="beaker" viewBox="0 0 24 24">
    <g fill="none" stroke="currentColor" stroke-linecap="round" stroke-linejoin="round">
  <path d="M6 3h12"/>
  <path d="M8 3v6l-4.5 7.5A2 2 0 0 0 5.2 20H18.8a2 2 0 0 0 1.7-3.5L16 9V3"/>
  <path d="M9 14h6"/>
</g>
  </symbol>
  <symbol id="book" viewBox="0 0 24 24">
    <g fill="none" stroke="currentColor" stroke-linecap="round" stroke-linejoin="round">
  <path d="M4 19.5A2.5 2.5 0 0 1 6.5 17H20"/>
  <path d="M4 4v15.5"/>
  <path d="M20 22V6a2 2 0 0 0-2-2H6.5A2.5 2.5 0 0 0 4 6.5"/>
</g>
  </symbol>
  <symbol id="call_tab" viewBox="0 0 24 24">
    <g fill="none" stroke="currentColor" stroke-linecap="round" stroke-linejoin="round">
  <path d="M22 16.92v2a2 2 0 0 1-2.18 2 19.83 19.83 0 0 1-8.63-3.07 19.5 19.5 0 0 1-6-6 19.83 19.83 0 0 1-3.07-8.65A2 2 0 0 1 4.1 1h2a2 2 0 0 1 2 1.72c.12.91.33 1.79.62 2.64a2 2 0 0 1-.45 2.11L7.1 8.9a16 16 0 0 0 6 6l1.43-1.17a2 2 0 0 1 2.11-.45c.85.29 1.73.5 2.64.62A2 2 0 0 1 22 16.92Z"/>
</g>
  </symbol>
  <symbol id="chat_bubble" viewBox="0 0 24 24">
    <g fill="none" stroke="currentColor" stroke-linecap="round" stroke-linejoin="round">
  <path d="M8 9h8"/>
  <path d="M8 13h5"/>
  <path d="M21 11c0 4.418-4.03 8-9 8-1.038 0-2.04-.137-2.981-.392L4 20l1.392-4.019A8.96 8.96 0 0 1 3 11c0-4.418 4.03-8 9-8s9 3.582 9 8Z"/>
</g>
  </symbol>
  <symbol id="check_badge" viewBox="0 0 24 24">
    <g fill="none" stroke="currentColor" stroke-linecap="round" stroke-linejoin="round">
  <path d="M12 2l2.39 2.39L17 5l.61 2.61L20 10l-2.39 2.39L17 15l-2.61.61L12 18l-2.39-2.39L7 15l-.61-2.61L4 10l2.39-2.39L7 5l2.61-.61L12 2z"/>
  <path d="M9 10.5l2 2 4-4"/>
</g>
  </symbol>
  <symbol id="chevron_down" viewBox="0 0 24 24">
    <g fill="none" stroke="currentColor" stroke-linecap="round" stroke-linejoin="round">
  <path d="M6 9l6 6 6-6"/>
</g>
  </symbol>
  <symbol id="chevron_right" viewBox="0 0 24 24">
    <g fill="none" stroke="currentColor" stroke-linecap="round" stroke-linejoin="round">
  <path d="M9 6l6 6-6 6"/>
</g>
  </symbol>
  <symbol id="circle_check" viewBox="0 0 24 24">
    <g fill="none" stroke="currentColor" stroke-linecap="round" stroke-linejoin="round">
  <circle cx="12" cy="12" r="9"/>
  <path d="M8.5 12.5l2.5 2.5 4.5-5"/>
</g>
  </symbol>
  <symbol id="clock" viewBox="0 0 24 24">
    <g fill="none" stroke="currentColor" stroke-linecap="round" stroke-linejoin="round">
  <circle cx="12" cy="12" r="9"/>
  <path d="M12 7v5l3 3"/>
</g>
  </symbol>
  <symbol id="code_braces" viewBox="0 0 24 24">
    <g fill="none" stroke="currentColor" stroke-linecap="round" stroke-linejoin="round">
  <path d="M8 8l-3 4 3 4"/>
  <path d="M16 8l3 4-3 4"/>
</g>
  </symbol>
  <symbol id="paper_plane" viewBox="0 0 24 24">
    <g fill="none" stroke="currentColor" stroke-linecap="round" stroke-linejoin="round">
  <path d="M22 2L11 13"/>
  <path d="M22 2l-7 20-4-9-9-4 20-7z"/>
</g>
  </symbol>
  <symbol id="phone" viewBox="0 0 24 24">
    <g fill="none" stroke="currentColor" stroke-linecap="round" stroke-linejoin="round">
  <path d="M22 16.92v2a2 2 0 0 1-2.18 2 19.83 19.83 0 0 1-8.63-3.07 19.5 19.5 0 0 1-6-6 19.83 19.83 0 0 1-3.07-8.65A2 2 0 0 1 4.1 1h2a2 2 0 0 1 2 1.72c.12.91.33 1.79.62 2.64a2 2 0 0 1-.45 2.11L7.1 8.9a16 16 0 0 0 6 6l1.43-1.17a2 2 0 0 1 2.11-.45c.85.29 1.73.5 2.64.62A2 2 0 0 1 22 16.92Z"/>
</g>
  </symbol>
  <symbol id="plus" viewBox="0 0 24 24">
    <g fill="none" stroke="currentColor" stroke-linecap="round" stroke-linejoin="round">
  <path d="M12 5v14"/>
  <path d="M5 12h14"/>
</g>
  </symbol>
  <symbol id="refresh_cw" viewBox="0 0 24 24">
    <g fill="none" stroke="currentColor" stroke-linecap="round" stroke-linejoin="round">
  <path d="M21 12a9 9 0 1 1-2.64-6.36"/>
  <path d="M21 3v6h-6"/>
</g>
  </symbol>
  <symbol id="route_network" viewBox="0 0 24 24">
    <g fill="none" stroke="currentColor" stroke-linecap="round" stroke-linejoin="round">
  <circle cx="6" cy="6" r="2"/>
  <circle cx="18" cy="6" r="2"/>
  <circle cx="12" cy="18" r="2"/>
  <path d="M8 6h8"/>
  <path d="M12 8v6"/>
</g>
  </symbol>
  <symbol id="settings_gear" viewBox="0 0 24 24">
    <g fill="none" stroke="currentColor" stroke-linecap="round" stroke-linejoin="round">
  <path d="M12 15a3 3 0 1 0 0-6 3 3 0 0 0 0 6z"/>
  <path d="M19.4 15a1.65 1.65 0 0 0 .33 1.82l.06.06a2 2 0 1 1-2.83 2.83l-.06-.06a1.65 1.65 0 0 0-1.82-.33 1.65 1.65 0 0 0-1 1.51V21a2 2 0 1 1-4 0v-.09a1.65 1.65 0 0 0-1-1.51 1.65 1.65 0 0 0-1.82.33l-.06.06a2 2 0 1 1-2.83-2.83l.06-.06a1.65 1.65 0 0 0 .33-1.82 1.65 1.65 0 0 0-1.51-1H3a2 2 0 1 1 0-4h.09a1.65 1.65 0 0 0 1.51-1 1.65 1.65 0 0 0-.33-1.82l-.06-.06a2 2 0 1 1 2.83-2.83l.06.06a1.65 1.65 0 0 0 1.82.33H9a1.65 1.65 0 0 0 1-1.51V3a2 2 0 1 1 4 0v.09a1.65 1.65 0 0 0 1 1.51 1.65 1.65 0 0 0 1.82-.33l.06-.06a2 2 0 1 1 2.83 2.83l-.06.06a1.65 1.65 0 0 0-.33 1.82V9c0 .66.39 1.26 1 1.51H21a2 2 0 1 1 0 4h-.09a1.65 1.65 0 0 0-1.51 1z"/>
</g>
  </symbol>
  <symbol id="sidebar_collapse" viewBox="0 0 24 24">
    <g fill="none" stroke="currentColor" stroke-linecap="round" stroke-linejoin="round">
  <path d="M10 6l-4 6 4 6"/>
  <path d="M14 6l4 6-4 6"/>
</g>
  </symbol>
  <symbol id="sliders" viewBox="0 0 24 24">
    <g fill="none" stroke="currentColor" stroke-linecap="round" stroke-linejoin="round">
  <path d="M4 21v-7"/>
  <path d="M4 10V3"/>
  <path d="M12 21v-9"/>
  <path d="M12 8V3"/>
  <path d="M20 21v-5"/>
  <path d="M20 12V3"/>
  <rect x="1" y="9" width="6" height="4" rx="2"/>
  <rect x="9" y="6" width="6" height="4" rx="2"/>
  <rect x="17" y="14" width="6" height="4" rx="2"/>
</g>
  </symbol>
  <symbol id="trash" viewBox="0 0 24 24">
    <g fill="none" stroke="currentColor" stroke-linecap="round" stroke-linejoin="round">
  <path d="M3 6h18"/>
  <path d="M8 6V4a2 2 0 0 1 2-2h4a2 2 0 0 1 2 2v2"/>
  <path d="M19 6l-1 14a2 2 0 0 1-2 2H8a2 2 0 0 1-2-2L5 6"/>
  <path d="M10 11v6"/>
  <path d="M14 11v6"/>
</g>
  </symbol>
  <symbol id="user" viewBox="0 0 24 24">
    <g fill="none" stroke="currentColor" stroke-linecap="round" stroke-linejoin="round">
  <circle cx="12" cy="8" r="4"/>
  <path d="M4 20a8 8 0 0 1 16 0"/>
</g>
  </symbol>
  <symbol id="user_smiley" viewBox="0 0 24 24">
    <g fill="none" stroke="currentColor" stroke-linecap="round" stroke-linejoin="round">
  <circle cx="12" cy="12" r="9"/>
  <path d="M9 10h.01"/>
  <path d="M15 10h.01"/>
  <path d="M9 14c.8 1.2 2.2 2 3 2s2.2-.8 3-2"/>
</g>
  </symbol>
  <symbol id="x_close" viewBox="0 0 24 24">
    <g fill="none" stroke="currentColor" stroke-linecap="round" stroke-linejoin="round">
  <path d="M18 6L6 18"/>
  <path d="M6 6l12 12"/>
</g>
  </symbol>
</svg>
